<svg width="33" height="32" viewBox="0 0 33 32" fill="none" xmlns="http://www.w3.org/2000/svg">
<g id="Icon bell">
<path id="Vector" d="M21.0972 28C21.0972 28.2652 20.9918 28.5196 20.8043 28.7071C20.6168 28.8946 20.3624 29 20.0972 29H12.0972C11.832 29 11.5776 28.8946 11.3901 28.7071C11.2025 28.5196 11.0972 28.2652 11.0972 28C11.0972 27.7348 11.2025 27.4804 11.3901 27.2929C11.5776 27.1054 11.832 27 12.0972 27H20.0972C20.3624 27 20.6168 27.1054 20.8043 27.2929C20.9918 27.4804 21.0972 27.7348 21.0972 28ZM27.8234 21.9925C27.1284 20.7975 26.0972 17.4163 26.0972 13C26.0972 10.3478 25.0436 7.8043 23.1683 5.92893C21.2929 4.05357 18.7493 3 16.0972 3C13.445 3 10.9015 4.05357 9.02612 5.92893C7.15075 7.8043 6.09718 10.3478 6.09718 13C6.09718 17.4175 5.06468 20.7975 4.37093 21.9925C4.19377 22.2963 4.09985 22.6415 4.09864 22.9931C4.09744 23.3448 4.18899 23.6906 4.36406 23.9956C4.53913 24.3006 4.79153 24.5541 5.09582 24.7304C5.4001 24.9068 5.7455 24.9997 6.09718 25H26.0972C26.4488 24.9995 26.794 24.9064 27.0981 24.73C27.4022 24.5535 27.6544 24.3 27.8294 23.9951C28.0043 23.6901 28.0957 23.3444 28.0945 22.9928C28.0932 22.6412 27.9993 22.2962 27.8222 21.9925H27.8234Z" fill="#2B2B2B"/>
</g>
</svg>
