<svg width="28" height="27" viewBox="0 0 28 27" fill="none" xmlns="http://www.w3.org/2000/svg">
<g id="Icon category">
<path id="Vector" d="M11.4721 3.5H4.80545C4.51076 3.5 4.22815 3.61706 4.01977 3.82544C3.8114 4.03381 3.69434 4.31643 3.69434 4.61111V11.2778C3.69434 11.5725 3.8114 11.8551 4.01977 12.0635C4.22815 12.2718 4.51076 12.3889 4.80545 12.3889H11.4721C11.7668 12.3889 12.0494 12.2718 12.2578 12.0635C12.4662 11.8551 12.5832 11.5725 12.5832 11.2778V4.61111C12.5832 4.31643 12.4662 4.03381 12.2578 3.82544C12.0494 3.61706 11.7668 3.5 11.4721 3.5ZM22.5832 14.6111H15.9166C15.6219 14.6111 15.3393 14.7282 15.1309 14.9365C14.9225 15.1449 14.8054 15.4275 14.8054 15.7222V22.3889C14.8054 22.6836 14.9225 22.9662 15.1309 23.1746C15.3393 23.3829 15.6219 23.5 15.9166 23.5H22.5832C22.8779 23.5 23.1605 23.3829 23.3689 23.1746C23.5773 22.9662 23.6943 22.6836 23.6943 22.3889V15.7222C23.6943 15.4275 23.5773 15.1449 23.3689 14.9365C23.1605 14.7282 22.8779 14.6111 22.5832 14.6111ZM19.2499 3.5C16.7988 3.5 14.8054 5.49333 14.8054 7.94444C14.8054 10.3956 16.7988 12.3889 19.2499 12.3889C21.701 12.3889 23.6943 10.3956 23.6943 7.94444C23.6943 5.49333 21.701 3.5 19.2499 3.5ZM8.13878 14.6111C5.68767 14.6111 3.69434 16.6044 3.69434 19.0556C3.69434 21.5067 5.68767 23.5 8.13878 23.5C10.5899 23.5 12.5832 21.5067 12.5832 19.0556C12.5832 16.6044 10.5899 14.6111 8.13878 14.6111Z" fill="#2B2B2B"/>
</g>
</svg>
