<svg width="32" height="32" viewBox="0 0 32 32" fill="none" xmlns="http://www.w3.org/2000/svg">
<g id="Icon chats">
<path id="Vector" d="M21.1963 9.07244C20.2913 6.9535 18.6824 5.21208 16.6416 4.14258C14.6009 3.07309 12.2534 2.74114 9.99616 3.20285C7.73891 3.66456 5.71031 4.89161 4.25334 6.67655C2.79637 8.46149 2.0004 10.6948 2 12.9989V21.2495C2 21.7136 2.18437 22.1588 2.51256 22.487C2.84075 22.8152 3.28587 22.9996 3.75 22.9996H10.8337C11.6141 24.7818 12.8964 26.2982 14.5241 27.3637C16.1519 28.4293 18.0546 28.9978 20 29H28.25C28.7141 29 29.1592 28.8156 29.4874 28.4874C29.8156 28.1592 30 27.714 30 27.2499V18.9993C29.9995 16.5545 29.1036 14.1945 27.4814 12.3655C25.8593 10.5364 23.6234 9.3649 21.1963 9.07244ZM28 26.9999H20C18.5854 26.9983 17.1964 26.6224 15.974 25.9104C14.7516 25.1983 13.7394 24.1756 13.04 22.9459C14.4096 22.8037 15.7351 22.38 16.9333 21.7012C18.1314 21.0225 19.1763 20.1034 20.0024 19.0016C20.8284 17.8999 21.4179 16.6392 21.7337 15.2989C22.0495 13.9585 22.0848 12.5673 21.8375 11.2126C23.5916 11.6266 25.1545 12.6208 26.273 14.0341C27.3915 15.4474 28 17.197 28 18.9993V26.9999Z" fill="#2B2B2B"/>
</g>
</svg>
