<svg width="16" height="16" viewBox="0 0 16 16" fill="none" xmlns="http://www.w3.org/2000/svg">
<g id="Group">
<path id="Vector" d="M7.59773 1.26617C11.0944 1.26617 13.9289 4.10062 13.9289 7.5973C13.9289 11.094 11.0944 13.9284 7.59773 13.9284C4.10105 13.9284 1.2666 11.094 1.2666 7.5973C1.2666 4.10062 4.10105 1.26617 7.59773 1.26617ZM7.59773 3.79862C7.42982 3.79862 7.26878 3.86533 7.15005 3.98406C7.03132 4.10279 6.96461 4.26383 6.96461 4.43174V7.5973C6.96465 7.7652 7.03138 7.92621 7.15012 8.04491L9.04946 9.94425C9.16886 10.0596 9.32879 10.1234 9.49479 10.1219C9.66079 10.1205 9.81958 10.0539 9.93696 9.93654C10.0543 9.81915 10.1209 9.66036 10.1224 9.49436C10.1238 9.32836 10.06 9.16843 9.94468 9.04903L8.23084 7.33519V4.43174C8.23084 4.26383 8.16414 4.10279 8.04541 3.98406C7.92667 3.86533 7.76564 3.79862 7.59773 3.79862Z" fill="#2B2B2B"/>
</g>
</svg>
