<svg width="18" height="17" viewBox="0 0 18 17" fill="none" xmlns="http://www.w3.org/2000/svg">
<g id="Icon location">
<path id="Vector" d="M8.69466 1.41663C5.95341 1.41663 3.73633 3.63371 3.73633 6.37496C3.73633 10.0937 8.69466 15.5833 8.69466 15.5833C8.69466 15.5833 13.653 10.0937 13.653 6.37496C13.653 3.63371 11.4359 1.41663 8.69466 1.41663ZM8.69466 8.14579C8.22501 8.14579 7.77459 7.95922 7.44249 7.62713C7.1104 7.29503 6.92383 6.84461 6.92383 6.37496C6.92383 5.90531 7.1104 5.45489 7.44249 5.12279C7.77459 4.7907 8.22501 4.60413 8.69466 4.60413C9.16432 4.60413 9.61473 4.7907 9.94683 5.12279C10.2789 5.45489 10.4655 5.90531 10.4655 6.37496C10.4655 6.84461 10.2789 7.29503 9.94683 7.62713C9.61473 7.95922 9.16432 8.14579 8.69466 8.14579Z" fill="#2B2B2B"/>
</g>
</svg>
