<svg width="19" height="19" viewBox="0 0 19 19" fill="none" xmlns="http://www.w3.org/2000/svg">
<g id="Property 1=New" clip-path="url(#clip0_41_3649)">
<path id="Vector" d="M15.8487 13.1563C15.9328 13.0107 15.9351 12.8414 15.8725 12.6982L15.8771 12.6956L14.8543 10.924L16.6205 9.9043L16.6186 9.90078C16.6829 9.85384 16.7352 9.79242 16.7713 9.72148C16.8075 9.65054 16.8263 9.57209 16.8265 9.49249C16.8263 9.4128 16.8074 9.33427 16.7712 9.26327C16.735 9.19228 16.6825 9.13083 16.6181 9.0839L16.6206 9.07963L14.8488 8.05667L15.8688 6.28995L15.8651 6.28786C15.8973 6.21506 15.9119 6.1357 15.9078 6.05621C15.9036 5.97671 15.8807 5.89933 15.841 5.83032C15.8011 5.76129 15.7454 5.70268 15.6785 5.65929C15.6116 5.61589 15.5353 5.58893 15.456 5.58061L15.4561 5.57559L13.376 5.57561L13.3761 3.58049L13.3719 3.5805C13.3634 3.50136 13.3363 3.42534 13.2929 3.3586C13.2495 3.29185 13.1911 3.23627 13.1222 3.19633C12.9766 3.11226 12.8071 3.10983 12.6641 3.17249L12.6614 3.16791L10.9051 4.18195L9.89698 2.43582L9.89337 2.4379C9.84643 2.37361 9.78501 2.32129 9.71407 2.28517C9.64313 2.24906 9.56468 2.23017 9.48508 2.23004C9.40537 2.23014 9.3268 2.24906 9.25577 2.28525C9.18475 2.32144 9.12327 2.37389 9.07633 2.43832L9.07189 2.43575L8.05786 4.1921L6.31171 3.18396L6.30971 3.18742C6.23691 3.15522 6.15755 3.14062 6.07806 3.14481C5.99857 3.14901 5.92118 3.17187 5.85217 3.21154C5.78325 3.2515 5.72472 3.30716 5.68134 3.37398C5.63796 3.4408 5.61095 3.51691 5.60249 3.59612L5.59737 3.59624L5.59731 5.58983L3.5363 5.58989L3.5363 5.59406C3.45716 5.6026 3.38114 5.62965 3.3144 5.67302C3.24766 5.7164 3.19207 5.77488 3.15214 5.84374C3.06806 5.98936 3.06563 6.15887 3.1283 6.30189L3.12371 6.30451L4.14654 8.07604L2.38031 9.09578L2.38232 9.09913C2.31803 9.14607 2.26571 9.2075 2.22959 9.27844C2.19348 9.34937 2.17459 9.42782 2.17446 9.50742C2.17462 9.58712 2.19357 9.66565 2.22977 9.73664C2.26598 9.80764 2.31842 9.86909 2.38283 9.91601L2.38027 9.92045L4.15192 10.9433L3.132 12.7099L3.13562 12.712C3.07324 12.855 3.07586 13.0241 3.15974 13.1695C3.19972 13.2385 3.25543 13.2971 3.32234 13.3405C3.38924 13.3839 3.46545 13.4108 3.54475 13.4192L3.54471 13.4242L5.62479 13.4242L5.62472 15.4193L5.62889 15.4193C5.63742 15.4985 5.66447 15.5745 5.70785 15.6412C5.75122 15.708 5.80971 15.7636 5.87856 15.8035C6.02419 15.8876 6.19369 15.89 6.33662 15.8275L6.33917 15.8318L8.09553 14.8178L9.10379 16.564L9.1074 16.5619C9.15434 16.6262 9.21576 16.6785 9.2867 16.7146C9.35764 16.7508 9.43609 16.7697 9.51569 16.7698C9.59541 16.7697 9.67397 16.7508 9.745 16.7146C9.81602 16.6784 9.8775 16.6259 9.92444 16.5615L9.92888 16.5641L10.9428 14.8079L12.6891 15.8161L12.6911 15.8127C12.7639 15.8449 12.8433 15.8595 12.9228 15.8553C13.0023 15.8511 13.0797 15.8282 13.1487 15.7885C13.2176 15.7485 13.2761 15.6929 13.3195 15.626C13.3629 15.5592 13.39 15.483 13.3984 15.4038L13.4035 15.4038L13.4035 13.4102L15.4645 13.4102L15.4645 13.406C15.5437 13.3975 15.6197 13.3705 15.6865 13.3271C15.7532 13.2837 15.8088 13.2252 15.8487 13.1563ZM7.3875 10.7712L6.18064 9.1201L6.18071 10.7711L5.64188 10.7711L5.6417 8.23984L6.19578 8.23964L7.3685 9.82983L7.36844 8.23963L7.90743 8.23972L7.90729 10.7708L7.3875 10.7712ZM8.40813 10.7712L8.40821 8.2399L10.1994 8.24008L10.1994 8.71438L8.947 8.7142L8.94694 9.24554L10.1726 9.24565L10.1728 9.71962L8.94691 9.71985L8.94693 10.2966L10.1993 10.2968L10.1993 10.7711L8.40813 10.7712ZM12.5559 10.7713L12.1119 9.03313L11.6717 10.7711L11.0988 10.7712L10.3739 8.24007L10.9772 8.24003L11.4214 10.0691L11.9033 8.24003L12.3245 8.24011L12.8026 10.0693L13.2466 8.24005L13.85 8.24L13.1289 10.7714L12.5559 10.7713Z" fill="#2B2B2B"/>
</g>
<defs>
<clipPath id="clip0_41_3649">
<rect width="19" height="19" fill="white"/>
</clipPath>
</defs>
</svg>
