<svg width="19" height="19" viewBox="0 0 19 19" fill="none" xmlns="http://www.w3.org/2000/svg">
<g id="Property 1=Used">
<path id="Vector" d="M17.1432 9.01541L15.779 7.46051L15.9697 5.39954C16.0064 5.03282 15.757 4.69544 15.4049 4.61476L13.3806 4.15269L12.3245 2.37043C12.2342 2.21755 12.0914 2.10274 11.9227 2.04741C11.754 1.99208 11.571 2.00001 11.4077 2.06972L9.50074 2.89851L7.60113 2.08439C7.26374 1.9377 6.86769 2.06972 6.68433 2.3851L5.62084 4.16003L3.60387 4.61476C3.24449 4.69544 2.99512 5.02549 3.03179 5.39954L3.22249 7.45318L1.85828 9.01541C1.61625 9.29411 1.61625 9.70484 1.85828 9.98355L3.22249 11.5384L3.03179 13.6067C2.99512 13.9735 3.24449 14.3109 3.59654 14.3915L5.62084 14.8536L6.67699 16.6285C6.86769 16.9439 7.25641 17.0759 7.60113 16.9292L9.50074 16.1004L11.4004 16.9146C11.7377 17.0613 12.1338 16.9292 12.3172 16.6139L13.3733 14.8316L15.3976 14.3695C15.757 14.2888 15.999 13.9515 15.9624 13.5847L15.7717 11.5238L17.1359 9.96888C17.3852 9.70484 17.3852 9.29411 17.1432 9.01541ZM10.2342 13.1667H8.7673V11.6998H10.2342V13.1667ZM9.50074 10.2329C9.09735 10.2329 8.7673 9.90287 8.7673 9.49948V6.56571C8.7673 6.16232 9.09735 5.83227 9.50074 5.83227C9.90413 5.83227 10.2342 6.16232 10.2342 6.56571V9.49948C10.2342 9.90287 9.90413 10.2329 9.50074 10.2329Z" fill="#2B2B2B"/>
</g>
</svg>
