<svg width="41" height="40" viewBox="0 0 41 40" fill="none" xmlns="http://www.w3.org/2000/svg">
<g id="Icon instagram">
<path id="Vector" d="M20.6943 15C19.2356 15 17.8367 15.5795 16.8052 16.6109C15.7738 17.6424 15.1943 19.0413 15.1943 20.5C15.1943 21.9587 15.7738 23.3576 16.8052 24.3891C17.8367 25.4205 19.2356 26 20.6943 26C22.153 26 23.552 25.4205 24.5834 24.3891C25.6149 23.3576 26.1943 21.9587 26.1943 20.5C26.1943 19.0413 25.6149 17.6424 24.5834 16.6109C23.552 15.5795 22.153 15 20.6943 15Z" fill="#487115"/>
<path id="Vector_2" fill-rule="evenodd" clip-rule="evenodd" d="M11.8755 5.48646C17.7368 4.83785 23.652 4.83785 29.5133 5.48646C32.7154 5.84334 35.297 8.36004 35.673 11.5686C36.3681 17.502 36.3681 23.4961 35.673 29.4296C35.297 32.6381 32.7154 35.1548 29.515 35.5134C23.6531 36.1622 17.7373 36.1622 11.8755 35.5134C8.67334 35.1548 6.09175 32.6381 5.71572 29.4313C5.02054 23.4973 5.02054 17.5026 5.71572 11.5686C6.09175 8.36004 8.67334 5.84334 11.8755 5.48646ZM29.1255 10.3986C28.6782 10.3986 28.2493 10.576 27.9331 10.8917C27.6169 11.2074 27.4392 11.6356 27.4392 12.0821C27.4392 12.5285 27.6169 12.9567 27.9331 13.2724C28.2493 13.5881 28.6782 13.7655 29.1255 13.7655C29.5727 13.7655 30.0016 13.5881 30.3178 13.2724C30.634 12.9567 30.8117 12.5285 30.8117 12.0821C30.8117 11.6356 30.634 11.2074 30.3178 10.8917C30.0016 10.576 29.5727 10.3986 29.1255 10.3986ZM12.6848 20.4991C12.6848 18.3784 13.5287 16.3445 15.0308 14.8449C16.5329 13.3454 18.5701 12.5029 20.6944 12.5029C22.8186 12.5029 24.8559 13.3454 26.358 14.8449C27.86 16.3445 28.7039 18.3784 28.7039 20.4991C28.7039 22.6198 27.86 24.6537 26.358 26.1532C24.8559 27.6528 22.8186 28.4953 20.6944 28.4953C18.5701 28.4953 16.5329 27.6528 15.0308 26.1532C13.5287 24.6537 12.6848 22.6198 12.6848 20.4991Z" fill="#487115"/>
</g>
</svg>
