<svg width="129" height="60" viewBox="0 0 129 60" fill="none" xmlns="http://www.w3.org/2000/svg">
<path d="M17.7132 59.2238V45.547L12.1454 55.7312H9.78981L4.22198 45.547V59.2238H0.000228882V38.3857H4.52791L10.9523 50.2429L17.4379 38.3857H21.935V59.2238H17.7132Z" fill="#69A51F"/>
<g clip-path="url(#clip0_87_2281)">
<mask id="mask0_87_2281" style="mask-type:luminance" maskUnits="userSpaceOnUse" x="25" y="38" width="22" height="23">
<path d="M26.1587 46.063H45.9L43.7181 59.2239H28.3407L26.1587 46.063Z" fill="white" stroke="white" stroke-width="2.11877" stroke-linecap="round" stroke-linejoin="round"/>
<path d="M41.513 46.0629C41.513 42.4288 39.0578 39.4824 36.0293 39.4824C33.0008 39.4824 30.5456 42.4288 30.5456 46.0629" stroke="white" stroke-width="2.11877" stroke-linecap="round" stroke-linejoin="round"/>
<path d="M32.7391 51.5465C33.3448 51.5465 33.8359 51.0555 33.8359 50.4498C33.8359 49.8441 33.3448 49.353 32.7391 49.353C32.1334 49.353 31.6424 49.8441 31.6424 50.4498C31.6424 51.0555 32.1334 51.5465 32.7391 51.5465Z" fill="black"/>
<path d="M32.739 53.7397C32.739 53.7397 33.8357 54.8365 36.0292 54.8365C38.2226 54.8365 39.3194 53.7397 39.3194 53.7397" stroke="black" stroke-width="2.11877" stroke-linecap="round" stroke-linejoin="round"/>
<path d="M39.3194 51.5465C39.9251 51.5465 40.4161 51.0555 40.4161 50.4498C40.4161 49.8441 39.9251 49.353 39.3194 49.353C38.7137 49.353 38.2226 49.8441 38.2226 50.4498C38.2226 51.0555 38.7137 51.5465 39.3194 51.5465Z" fill="black"/>
</mask>
<g mask="url(#mask0_87_2281)">
<path d="M23.9652 37.2891H49.1902V62.514H23.9652V37.2891Z" fill="#69A51F"/>
</g>
</g>
<path d="M51.2199 59.2238V38.3857H60.8192C61.8179 38.3857 62.735 38.5814 63.5706 38.9727C64.4266 39.3641 65.1603 39.8923 65.7717 40.5576C66.4035 41.2228 66.8825 41.9664 67.2086 42.7881C67.5551 43.6099 67.7283 44.4513 67.7283 45.3122C67.7283 46.1927 67.5653 47.0438 67.2392 47.8656C66.9334 48.6678 66.4851 49.3722 65.894 49.9787C65.303 50.5853 64.61 51.0549 63.8152 51.3875L68.7677 59.2238H64.1209L59.6575 52.2386H55.4387V59.2238H51.2199ZM55.4387 48.6874H60.7275C61.2574 48.6874 61.7262 48.5406 62.1338 48.2471C62.5414 47.9341 62.8675 47.5232 63.1121 47.0145C63.3566 46.5057 63.4789 45.9383 63.4789 45.3122C63.4789 44.6469 63.3362 44.0697 63.0509 43.5806C62.7656 43.0719 62.3987 42.6707 61.9504 42.3773C61.5224 42.0838 61.0536 41.937 60.5441 41.937H55.4387V48.6874Z" fill="#69A51F"/>
<path d="M71.8943 59.2238V38.4151H76.1472V48.3058L85.3308 38.3857H90.015L81.6327 47.6308L90.5389 59.2238H85.7314L78.9207 50.2429L76.1472 53.0017V59.2238H71.8943Z" fill="#69A51F"/>
<path d="M107.923 55.6725V59.2238H93.6658V38.3857H107.663V41.937H97.6568V46.9557H106.304V50.2429H97.6568V55.6725H107.923Z" fill="#69A51F"/>
<path d="M128.598 41.937H121.858V59.2238H117.79V41.937H111.05V38.3857H128.598V41.937Z" fill="#69A51F"/>
<path d="M50.3687 15.4671C50.3687 16.6411 50.0517 17.6292 49.4177 18.4314C48.7837 19.214 47.9247 19.8108 46.8407 20.2217C45.7772 20.6326 44.6115 20.838 43.3434 20.838H32.8209V0H44.4785C45.5011 0 46.3806 0.264144 47.1168 0.792432C47.8736 1.30115 48.4462 1.96641 48.8348 2.78819C49.2439 3.5904 49.4484 4.43175 49.4484 5.31223C49.4484 6.31011 49.1825 7.25907 48.6507 8.15912C48.119 9.05916 47.3418 9.72441 46.3192 10.1549C47.5668 10.5071 48.5485 11.143 49.2643 12.0626C50.0006 12.9822 50.3687 14.117 50.3687 15.4671ZM46.1045 14.704C46.1045 14.1757 45.992 13.7061 45.767 13.2953C45.542 12.8648 45.2353 12.5322 44.8467 12.2974C44.4785 12.043 44.049 11.9158 43.5582 11.9158H37.0545V17.4042H43.3434C43.8547 17.4042 44.3149 17.2868 44.724 17.052C45.1535 16.7976 45.4909 16.465 45.7363 16.0541C45.9818 15.6432 46.1045 15.1932 46.1045 14.704ZM37.0545 3.46322V8.71675H42.6992C43.1696 8.71675 43.5991 8.60914 43.9877 8.39391C44.3763 8.17868 44.6831 7.87541 44.908 7.48408C45.1535 7.09276 45.2762 6.62317 45.2762 6.07531C45.2762 5.54703 45.1637 5.08722 44.9387 4.6959C44.7342 4.30457 44.4479 4.00129 44.0797 3.78606C43.732 3.57084 43.3332 3.46322 42.8833 3.46322H37.0545Z" fill="#69A51F"/>
<path d="M53.4957 10.7846C53.4957 9.46445 53.7204 8.17476 54.1699 6.91555C54.639 5.63602 55.3132 4.47835 56.1927 3.44254C57.0721 2.38642 58.147 1.55371 59.4174 0.944414C60.6877 0.314805 62.1339 0 63.756 0C65.6713 0 67.3227 0.436665 68.7103 1.30999C70.1175 2.18332 71.163 3.32068 71.8471 4.72207L68.7396 6.94601C68.3879 6.13361 67.9286 5.49385 67.3618 5.02672C66.7951 4.53928 66.1892 4.20417 65.5443 4.02138C64.8993 3.81828 64.2642 3.71673 63.6388 3.71673C62.6225 3.71673 61.7333 3.92998 60.9711 4.35649C60.2284 4.783 59.603 5.34152 59.0949 6.03206C58.5868 6.7226 58.2057 7.49438 57.9516 8.3474C57.7171 9.20042 57.5998 10.0534 57.5998 10.9065C57.5998 11.861 57.7464 12.7851 58.0395 13.6788C58.3327 14.5521 58.7431 15.334 59.2708 16.0246C59.818 16.6948 60.4629 17.233 61.2056 17.6392C61.9678 18.0251 62.7984 18.218 63.6974 18.218C64.3423 18.218 64.997 18.1063 65.6615 17.8829C66.326 17.6595 66.9416 17.3041 67.5084 16.8167C68.0752 16.3292 68.5149 15.6996 68.8276 14.9278L72.1402 16.9081C71.7298 17.9845 71.0556 18.8984 70.1175 19.6499C69.1989 20.4014 68.1631 20.97 67.01 21.3559C65.857 21.7418 64.7137 21.9348 63.5801 21.9348C62.0948 21.9348 60.7366 21.62 59.5053 20.9904C58.2741 20.3404 57.2089 19.4874 56.3099 18.4313C55.4305 17.3549 54.7367 16.1566 54.2286 14.8364C53.74 13.496 53.4957 12.1454 53.4957 10.7846Z" fill="#69A51F"/>
<path d="M89.5245 17.2868V20.838H75.2669V0H89.2642V3.55127H79.2578V8.57001H87.905V11.8571H79.2578V17.2868H89.5245Z" fill="#69A51F"/>
<defs>
<clipPath id="clip0_87_2281">
<rect width="23.0315" height="23.0315" fill="white" transform="translate(25.0618 36.1924)"/>
</clipPath>
</defs>
</svg>
